{
	"asset":{
		"generator":"Khronos glTF Blender I/O v4.4.56",
		"version":"2.0"
	},
	"scene":0,
	"scenes":[
		{
			"name":"Scene",
			"nodes":[
				0,
				1,
				2,
				3,
				4,
				5
			]
		}
	],
	"nodes":[
		{
			"mesh":0,
			"name":"boneStepsB",
			"rotation":[
				0.3574846386909485,
				-0.6100858449935913,
				0.6100858449935913,
				0.3574846088886261
			],
			"translation":[
				-46.93779373168945,
				17.582300186157227,
				-11.176227569580078
			]
		},
		{
			"mesh":1,
			"name":"boneStepsA",
			"rotation":[
				0.4426366686820984,
				0.6347808837890625,
				-0.4966367483139038,
				0.3930369019508362
			],
			"translation":[
				-45.91465759277344,
				18.418848037719727,
				19.241470336914062
			]
		},
		{
			"mesh":2,
			"name":"boneBridgeA",
			"rotation":[
				0.78887939453125,
				0.00544348219409585,
				-0.007371144834905863,
				0.6144798994064331
			],
			"translation":[
				-47.950538635253906,
				18.06610870361328,
				4.573758125305176
			]
		},
		{
			"mesh":3,
			"name":"boneBridgeA_collider",
			"rotation":[
				0.78887939453125,
				0.00544348219409585,
				-0.007371144834905863,
				0.6144798994064331
			],
			"translation":[
				-47.950538635253906,
				18.06610870361328,
				4.573758125305176
			]
		},
		{
			"mesh":4,
			"name":"boneStepsA_collider",
			"rotation":[
				0.4426366686820984,
				0.6347808837890625,
				-0.4966367483139038,
				0.3930369019508362
			],
			"translation":[
				-45.91465759277344,
				18.418848037719727,
				19.241470336914062
			]
		},
		{
			"mesh":5,
			"name":"boneStepsB_collider",
			"rotation":[
				0.3574846386909485,
				-0.6100858449935913,
				0.6100858449935913,
				0.3574846088886261
			],
			"translation":[
				-46.93779373168945,
				17.582300186157227,
				-11.176227569580078
			]
		}
	],
	"materials":[
		{
			"doubleSided":true,
			"name":"Pirate.002",
			"pbrMetallicRoughness":{
				"baseColorTexture":{
					"index":0
				},
				"metallicFactor":0
			}
		},
		{
			"doubleSided":true,
			"name":"BoneMap",
			"pbrMetallicRoughness":{
				"baseColorTexture":{
					"index":1
				},
				"metallicFactor":0
			}
		}
	],
	"meshes":[
		{
			"name":"Cube.007",
			"primitives":[
				{
					"attributes":{
						"POSITION":0,
						"NORMAL":1,
						"TEXCOORD_0":2
					},
					"indices":3,
					"material":0
				}
			]
		},
		{
			"name":"Cube.008",
			"primitives":[
				{
					"attributes":{
						"POSITION":4,
						"NORMAL":5,
						"TEXCOORD_0":6
					},
					"indices":3,
					"material":0
				}
			]
		},
		{
			"name":"Cube.011",
			"primitives":[
				{
					"attributes":{
						"POSITION":7,
						"NORMAL":8,
						"TEXCOORD_0":9
					},
					"indices":10,
					"material":1
				}
			]
		},
		{
			"name":"Cube.001",
			"primitives":[
				{
					"attributes":{
						"POSITION":11,
						"NORMAL":12,
						"TEXCOORD_0":13
					},
					"indices":10,
					"material":1
				}
			]
		},
		{
			"name":"Cube.002",
			"primitives":[
				{
					"attributes":{
						"POSITION":14,
						"NORMAL":15,
						"TEXCOORD_0":16
					},
					"indices":3,
					"material":0
				}
			]
		},
		{
			"name":"Cube.003",
			"primitives":[
				{
					"attributes":{
						"POSITION":17,
						"NORMAL":18,
						"TEXCOORD_0":19
					},
					"indices":3,
					"material":0
				}
			]
		}
	],
	"textures":[
		{
			"sampler":0,
			"source":0
		},
		{
			"sampler":0,
			"source":1
		}
	],
	"images":[
		{
			"mimeType":"image/png",
			"name":"PiratesPack_TX.png",
			"uri":"PiratesPack_TX_png.png"
		},
		{
			"mimeType":"image/png",
			"name":"boneGradientsA",
			"uri":"boneGradientsA.png"
		}
	],
	"accessors":[
		{
			"bufferView":0,
			"componentType":5126,
			"count":3824,
			"max":[
				1.5299654006958008,
				2.974891185760498,
				1.7766554355621338
			],
			"min":[
				-2.8135464191436768,
				-4.0584259033203125,
				-1.2586305141448975
			],
			"type":"VEC3"
		},
		{
			"bufferView":1,
			"componentType":5126,
			"count":3824,
			"type":"VEC3"
		},
		{
			"bufferView":2,
			"componentType":5126,
			"count":3824,
			"type":"VEC2"
		},
		{
			"bufferView":3,
			"componentType":5123,
			"count":5040,
			"type":"SCALAR"
		},
		{
			"bufferView":4,
			"componentType":5126,
			"count":3824,
			"max":[
				1.5299654006958008,
				2.974891185760498,
				1.7766554355621338
			],
			"min":[
				-2.8135464191436768,
				-4.0584259033203125,
				-1.2586305141448975
			],
			"type":"VEC3"
		},
		{
			"bufferView":5,
			"componentType":5126,
			"count":3824,
			"type":"VEC3"
		},
		{
			"bufferView":6,
			"componentType":5126,
			"count":3824,
			"type":"VEC2"
		},
		{
			"bufferView":7,
			"componentType":5126,
			"count":956,
			"max":[
				2.9795236587524414,
				13.843238830566406,
				5.5074896812438965
			],
			"min":[
				-3.0755863189697266,
				-13.843239784240723,
				-5.507488250732422
			],
			"type":"VEC3"
		},
		{
			"bufferView":8,
			"componentType":5126,
			"count":956,
			"type":"VEC3"
		},
		{
			"bufferView":9,
			"componentType":5126,
			"count":956,
			"type":"VEC2"
		},
		{
			"bufferView":10,
			"componentType":5123,
			"count":1260,
			"type":"SCALAR"
		},
		{
			"bufferView":11,
			"componentType":5126,
			"count":956,
			"max":[
				2.9795236587524414,
				13.843238830566406,
				5.5074896812438965
			],
			"min":[
				-3.0755863189697266,
				-13.843239784240723,
				-5.507488250732422
			],
			"type":"VEC3"
		},
		{
			"bufferView":12,
			"componentType":5126,
			"count":956,
			"type":"VEC3"
		},
		{
			"bufferView":13,
			"componentType":5126,
			"count":956,
			"type":"VEC2"
		},
		{
			"bufferView":14,
			"componentType":5126,
			"count":3824,
			"max":[
				1.5299654006958008,
				2.974891185760498,
				1.7766554355621338
			],
			"min":[
				-2.8135464191436768,
				-4.0584259033203125,
				-1.2586305141448975
			],
			"type":"VEC3"
		},
		{
			"bufferView":15,
			"componentType":5126,
			"count":3824,
			"type":"VEC3"
		},
		{
			"bufferView":16,
			"componentType":5126,
			"count":3824,
			"type":"VEC2"
		},
		{
			"bufferView":17,
			"componentType":5126,
			"count":3824,
			"max":[
				1.5299654006958008,
				2.974891185760498,
				1.7766554355621338
			],
			"min":[
				-2.8135464191436768,
				-4.0584259033203125,
				-1.2586305141448975
			],
			"type":"VEC3"
		},
		{
			"bufferView":18,
			"componentType":5126,
			"count":3824,
			"type":"VEC3"
		},
		{
			"bufferView":19,
			"componentType":5126,
			"count":3824,
			"type":"VEC2"
		}
	],
	"bufferViews":[
		{
			"buffer":0,
			"byteLength":45888,
			"byteOffset":0,
			"target":34962
		},
		{
			"buffer":0,
			"byteLength":45888,
			"byteOffset":45888,
			"target":34962
		},
		{
			"buffer":0,
			"byteLength":30592,
			"byteOffset":91776,
			"target":34962
		},
		{
			"buffer":0,
			"byteLength":10080,
			"byteOffset":122368,
			"target":34963
		},
		{
			"buffer":0,
			"byteLength":45888,
			"byteOffset":132448,
			"target":34962
		},
		{
			"buffer":0,
			"byteLength":45888,
			"byteOffset":178336,
			"target":34962
		},
		{
			"buffer":0,
			"byteLength":30592,
			"byteOffset":224224,
			"target":34962
		},
		{
			"buffer":0,
			"byteLength":11472,
			"byteOffset":254816,
			"target":34962
		},
		{
			"buffer":0,
			"byteLength":11472,
			"byteOffset":266288,
			"target":34962
		},
		{
			"buffer":0,
			"byteLength":7648,
			"byteOffset":277760,
			"target":34962
		},
		{
			"buffer":0,
			"byteLength":2520,
			"byteOffset":285408,
			"target":34963
		},
		{
			"buffer":0,
			"byteLength":11472,
			"byteOffset":287928,
			"target":34962
		},
		{
			"buffer":0,
			"byteLength":11472,
			"byteOffset":299400,
			"target":34962
		},
		{
			"buffer":0,
			"byteLength":7648,
			"byteOffset":310872,
			"target":34962
		},
		{
			"buffer":0,
			"byteLength":45888,
			"byteOffset":318520,
			"target":34962
		},
		{
			"buffer":0,
			"byteLength":45888,
			"byteOffset":364408,
			"target":34962
		},
		{
			"buffer":0,
			"byteLength":30592,
			"byteOffset":410296,
			"target":34962
		},
		{
			"buffer":0,
			"byteLength":45888,
			"byteOffset":440888,
			"target":34962
		},
		{
			"buffer":0,
			"byteLength":45888,
			"byteOffset":486776,
			"target":34962
		},
		{
			"buffer":0,
			"byteLength":30592,
			"byteOffset":532664,
			"target":34962
		}
	],
	"samplers":[
		{
			"magFilter":9729,
			"minFilter":9987
		}
	],
	"buffers":[
		{
			"byteLength":563256,
			"uri":"boneBridgeB.bin"
		}
	]
}
