{
	"asset":{
		"generator":"Khronos glTF Blender I/O v4.4.56",
		"version":"2.0"
	},
	"scene":0,
	"scenes":[
		{
			"name":"Scene",
			"nodes":[
				0,
				1
			]
		}
	],
	"nodes":[
		{
			"mesh":0,
			"name":"overallCemetaryWallB"
		},
		{
			"mesh":1,
			"name":"overallCemetaryWallB_collider"
		}
	],
	"materials":[
		{
			"doubleSided":true,
			"name":"Pirate.001",
			"pbrMetallicRoughness":{
				"baseColorTexture":{
					"index":0
				},
				"metallicFactor":0
			}
		}
	],
	"meshes":[
		{
			"name":"Cube.048",
			"primitives":[
				{
					"attributes":{
						"POSITION":0,
						"NORMAL":1,
						"TEXCOORD_0":2
					},
					"indices":3,
					"material":0
				}
			]
		},
		{
			"name":"Cube.062",
			"primitives":[
				{
					"attributes":{
						"POSITION":4,
						"NORMAL":5,
						"TEXCOORD_0":6
					},
					"indices":7
				}
			]
		}
	],
	"textures":[
		{
			"sampler":0,
			"source":0
		}
	],
	"images":[
		{
			"mimeType":"image/png",
			"name":"PiratesPack_TX.png",
			"uri":"PiratesPack_TX_png.png"
		}
	],
	"accessors":[
		{
			"bufferView":0,
			"componentType":5126,
			"count":45689,
			"max":[
				16.449731826782227,
				4.621303081512451,
				9.718751907348633
			],
			"min":[
				-14.454695701599121,
				-4.76837158203125e-07,
				-2.3252134323120117
			],
			"type":"VEC3"
		},
		{
			"bufferView":1,
			"componentType":5126,
			"count":45689,
			"type":"VEC3"
		},
		{
			"bufferView":2,
			"componentType":5126,
			"count":45689,
			"type":"VEC2"
		},
		{
			"bufferView":3,
			"componentType":5123,
			"count":76884,
			"type":"SCALAR"
		},
		{
			"bufferView":4,
			"componentType":5126,
			"count":986,
			"max":[
				16.49668312072754,
				4.473335266113281,
				9.778606414794922
			],
			"min":[
				-14.497039794921875,
				0,
				-2.3710198402404785
			],
			"type":"VEC3"
		},
		{
			"bufferView":5,
			"componentType":5126,
			"count":986,
			"type":"VEC3"
		},
		{
			"bufferView":6,
			"componentType":5126,
			"count":986,
			"type":"VEC2"
		},
		{
			"bufferView":7,
			"componentType":5123,
			"count":1686,
			"type":"SCALAR"
		}
	],
	"bufferViews":[
		{
			"buffer":0,
			"byteLength":548268,
			"byteOffset":0,
			"target":34962
		},
		{
			"buffer":0,
			"byteLength":548268,
			"byteOffset":548268,
			"target":34962
		},
		{
			"buffer":0,
			"byteLength":365512,
			"byteOffset":1096536,
			"target":34962
		},
		{
			"buffer":0,
			"byteLength":153768,
			"byteOffset":1462048,
			"target":34963
		},
		{
			"buffer":0,
			"byteLength":11832,
			"byteOffset":1615816,
			"target":34962
		},
		{
			"buffer":0,
			"byteLength":11832,
			"byteOffset":1627648,
			"target":34962
		},
		{
			"buffer":0,
			"byteLength":7888,
			"byteOffset":1639480,
			"target":34962
		},
		{
			"buffer":0,
			"byteLength":3372,
			"byteOffset":1647368,
			"target":34963
		}
	],
	"samplers":[
		{
			"magFilter":9729,
			"minFilter":9987
		}
	],
	"buffers":[
		{
			"byteLength":1650740,
			"uri":"cemetaryWall_overallB.bin"
		}
	]
}
