{
	"asset":{
		"generator":"Khronos glTF Blender I/O v4.4.56",
		"version":"2.0"
	},
	"scene":0,
	"scenes":[
		{
			"name":"Scene",
			"nodes":[
				0,
				1
			]
		}
	],
	"nodes":[
		{
			"mesh":0,
			"name":"cemetaryGateA"
		},
		{
			"mesh":1,
			"name":"cemetaryGateA_collider"
		}
	],
	"materials":[
		{
			"doubleSided":true,
			"name":"Pirate.001",
			"pbrMetallicRoughness":{
				"baseColorTexture":{
					"index":0
				},
				"metallicFactor":0
			}
		}
	],
	"meshes":[
		{
			"name":"Cube.012",
			"primitives":[
				{
					"attributes":{
						"POSITION":0,
						"NORMAL":1,
						"TEXCOORD_0":2
					},
					"indices":3,
					"material":0
				}
			]
		},
		{
			"name":"Cube.035",
			"primitives":[
				{
					"attributes":{
						"POSITION":4,
						"NORMAL":5,
						"TEXCOORD_0":6
					},
					"indices":7
				}
			]
		}
	],
	"textures":[
		{
			"sampler":0,
			"source":0
		}
	],
	"images":[
		{
			"mimeType":"image/png",
			"name":"PiratesPack_TX.png",
			"uri":"PiratesPack_TX_png.png"
		}
	],
	"accessors":[
		{
			"bufferView":0,
			"componentType":5126,
			"count":8530,
			"max":[
				3.233036994934082,
				4.621303081512451,
				1.2729408740997314
			],
			"min":[
				-3.233036518096924,
				0,
				-0.3250415027141571
			],
			"type":"VEC3"
		},
		{
			"bufferView":1,
			"componentType":5126,
			"count":8530,
			"type":"VEC3"
		},
		{
			"bufferView":2,
			"componentType":5126,
			"count":8530,
			"type":"VEC2"
		},
		{
			"bufferView":3,
			"componentType":5123,
			"count":14844,
			"type":"SCALAR"
		},
		{
			"bufferView":4,
			"componentType":5126,
			"count":224,
			"max":[
				3.2492270469665527,
				4.473335266113281,
				1.2683357000350952
			],
			"min":[
				-3.2492270469665527,
				0,
				-0.20846998691558838
			],
			"type":"VEC3"
		},
		{
			"bufferView":5,
			"componentType":5126,
			"count":224,
			"type":"VEC3"
		},
		{
			"bufferView":6,
			"componentType":5126,
			"count":224,
			"type":"VEC2"
		},
		{
			"bufferView":7,
			"componentType":5123,
			"count":366,
			"type":"SCALAR"
		}
	],
	"bufferViews":[
		{
			"buffer":0,
			"byteLength":102360,
			"byteOffset":0,
			"target":34962
		},
		{
			"buffer":0,
			"byteLength":102360,
			"byteOffset":102360,
			"target":34962
		},
		{
			"buffer":0,
			"byteLength":68240,
			"byteOffset":204720,
			"target":34962
		},
		{
			"buffer":0,
			"byteLength":29688,
			"byteOffset":272960,
			"target":34963
		},
		{
			"buffer":0,
			"byteLength":2688,
			"byteOffset":302648,
			"target":34962
		},
		{
			"buffer":0,
			"byteLength":2688,
			"byteOffset":305336,
			"target":34962
		},
		{
			"buffer":0,
			"byteLength":1792,
			"byteOffset":308024,
			"target":34962
		},
		{
			"buffer":0,
			"byteLength":732,
			"byteOffset":309816,
			"target":34963
		}
	],
	"samplers":[
		{
			"magFilter":9729,
			"minFilter":9987
		}
	],
	"buffers":[
		{
			"byteLength":310548,
			"uri":"cemetaryGateB.bin"
		}
	]
}
