{
	"asset":{
		"generator":"Khronos glTF Blender I/O v4.4.56",
		"version":"2.0"
	},
	"scene":0,
	"scenes":[
		{
			"name":"Scene",
			"nodes":[
				0,
				1,
				2,
				3,
				4,
				5,
				6,
				7
			]
		}
	],
	"nodes":[
		{
			"mesh":0,
			"name":"elevator_car"
		},
		{
			"mesh":1,
			"name":"ele_curvedRoof"
		},
		{
			"mesh":2,
			"name":"eleBones"
		},
		{
			"mesh":3,
			"name":"eleRibs"
		},
		{
			"mesh":4,
			"name":"elevator_car_collider"
		},
		{
			"mesh":5,
			"name":"eleBones_collider"
		},
		{
			"mesh":6,
			"name":"ele_curvedRoof_collider"
		},
		{
			"mesh":7,
			"name":"ele_text",
			"rotation":[
				0.3622002601623535,
				0.6135072112083435,
				-0.5934924483299255,
				0.37441495060920715
			],
			"scale":[
				0.2499999850988388,
				0.25,
				0.25
			],
			"translation":[
				-1.6327707767486572,
				2.7081854343414307,
				1.1142809391021729
			]
		}
	],
	"materials":[
		{
			"doubleSided":true,
			"name":"Pirate",
			"pbrMetallicRoughness":{
				"baseColorTexture":{
					"index":0
				},
				"metallicFactor":0
			}
		},
		{
			"doubleSided":true,
			"name":"Pirate.003",
			"pbrMetallicRoughness":{
				"baseColorTexture":{
					"index":1
				},
				"metallicFactor":0
			}
		}
	],
	"meshes":[
		{
			"name":"Cylinder.004",
			"primitives":[
				{
					"attributes":{
						"POSITION":0,
						"NORMAL":1,
						"TEXCOORD_0":2
					},
					"indices":3,
					"material":0
				}
			]
		},
		{
			"name":"Sphere",
			"primitives":[
				{
					"attributes":{
						"POSITION":4,
						"NORMAL":5,
						"TEXCOORD_0":6
					},
					"indices":7,
					"material":0
				}
			]
		},
		{
			"name":"Cube.016",
			"primitives":[
				{
					"attributes":{
						"POSITION":8,
						"NORMAL":9,
						"TEXCOORD_0":10
					},
					"indices":11,
					"material":1
				}
			]
		},
		{
			"name":"Circle.004",
			"primitives":[
				{
					"attributes":{
						"POSITION":12,
						"NORMAL":13,
						"TEXCOORD_0":14
					},
					"indices":15,
					"material":1
				}
			]
		},
		{
			"name":"Cylinder.014",
			"primitives":[
				{
					"attributes":{
						"POSITION":16,
						"NORMAL":17,
						"TEXCOORD_0":18
					},
					"indices":3,
					"material":0
				}
			]
		},
		{
			"name":"Cube.019",
			"primitives":[
				{
					"attributes":{
						"POSITION":19,
						"NORMAL":20,
						"TEXCOORD_0":21
					},
					"indices":11,
					"material":1
				}
			]
		},
		{
			"name":"Sphere.002",
			"primitives":[
				{
					"attributes":{
						"POSITION":22,
						"NORMAL":23,
						"TEXCOORD_0":24
					},
					"indices":7,
					"material":0
				}
			]
		},
		{
			"name":"Curve.008",
			"primitives":[
				{
					"attributes":{
						"POSITION":25,
						"NORMAL":26,
						"TEXCOORD_0":27
					},
					"indices":28,
					"material":0
				}
			]
		}
	],
	"textures":[
		{
			"sampler":0,
			"source":0
		},
		{
			"sampler":0,
			"source":1
		}
	],
	"images":[
		{
			"mimeType":"image/png",
			"name":"PiratesPack_TX",
			"uri":"PiratesPack_TX.png"
		},
		{
			"mimeType":"image/png",
			"name":"PiratesPack_TX.png",
			"uri":"PiratesPack_TX_png.png"
		}
	],
	"accessors":[
		{
			"bufferView":0,
			"componentType":5126,
			"count":298,
			"max":[
				2.060668706893921,
				3.5000014305114746,
				2.0606701374053955
			],
			"min":[
				-2.060668706893921,
				-4.508513384848811e-08,
				-2.0606701374053955
			],
			"type":"VEC3"
		},
		{
			"bufferView":1,
			"componentType":5126,
			"count":298,
			"type":"VEC3"
		},
		{
			"bufferView":2,
			"componentType":5126,
			"count":298,
			"type":"VEC2"
		},
		{
			"bufferView":3,
			"componentType":5123,
			"count":678,
			"type":"SCALAR"
		},
		{
			"bufferView":4,
			"componentType":5126,
			"count":496,
			"max":[
				1.9238115549087524,
				5.4546003341674805,
				1.9238113164901733
			],
			"min":[
				-1.9238113164901733,
				3.500000238418579,
				-1.9238115549087524
			],
			"type":"VEC3"
		},
		{
			"bufferView":5,
			"componentType":5126,
			"count":496,
			"type":"VEC3"
		},
		{
			"bufferView":6,
			"componentType":5126,
			"count":496,
			"type":"VEC2"
		},
		{
			"bufferView":7,
			"componentType":5123,
			"count":720,
			"type":"SCALAR"
		},
		{
			"bufferView":8,
			"componentType":5126,
			"count":5736,
			"max":[
				2.031646490097046,
				3.600856304168701,
				1.8123865127563477
			],
			"min":[
				-2.022209644317627,
				0.019938230514526367,
				-1.8909375667572021
			],
			"type":"VEC3"
		},
		{
			"bufferView":9,
			"componentType":5126,
			"count":5736,
			"type":"VEC3"
		},
		{
			"bufferView":10,
			"componentType":5126,
			"count":5736,
			"type":"VEC2"
		},
		{
			"bufferView":11,
			"componentType":5123,
			"count":7560,
			"type":"SCALAR"
		},
		{
			"bufferView":12,
			"componentType":5126,
			"count":582,
			"max":[
				1.9840795993804932,
				5.528881072998047,
				1.6310055255889893
			],
			"min":[
				-1.983386754989624,
				3.24029541015625,
				-1.7406020164489746
			],
			"type":"VEC3"
		},
		{
			"bufferView":13,
			"componentType":5126,
			"count":582,
			"type":"VEC3"
		},
		{
			"bufferView":14,
			"componentType":5126,
			"count":582,
			"type":"VEC2"
		},
		{
			"bufferView":15,
			"componentType":5123,
			"count":1152,
			"type":"SCALAR"
		},
		{
			"bufferView":16,
			"componentType":5126,
			"count":298,
			"max":[
				2.060668706893921,
				3.5000014305114746,
				2.0606701374053955
			],
			"min":[
				-2.060668706893921,
				-4.508513384848811e-08,
				-2.0606701374053955
			],
			"type":"VEC3"
		},
		{
			"bufferView":17,
			"componentType":5126,
			"count":298,
			"type":"VEC3"
		},
		{
			"bufferView":18,
			"componentType":5126,
			"count":298,
			"type":"VEC2"
		},
		{
			"bufferView":19,
			"componentType":5126,
			"count":5736,
			"max":[
				2.031646490097046,
				3.600856304168701,
				1.8123865127563477
			],
			"min":[
				-2.022209644317627,
				0.019938230514526367,
				-1.8909375667572021
			],
			"type":"VEC3"
		},
		{
			"bufferView":20,
			"componentType":5126,
			"count":5736,
			"type":"VEC3"
		},
		{
			"bufferView":21,
			"componentType":5126,
			"count":5736,
			"type":"VEC2"
		},
		{
			"bufferView":22,
			"componentType":5126,
			"count":496,
			"max":[
				1.9238115549087524,
				5.4546003341674805,
				1.9238113164901733
			],
			"min":[
				-1.9238113164901733,
				3.500000238418579,
				-1.9238115549087524
			],
			"type":"VEC3"
		},
		{
			"bufferView":23,
			"componentType":5126,
			"count":496,
			"type":"VEC3"
		},
		{
			"bufferView":24,
			"componentType":5126,
			"count":496,
			"type":"VEC2"
		},
		{
			"bufferView":25,
			"componentType":5126,
			"count":2016,
			"max":[
				1.1630001068115234,
				0.2199999988079071,
				7.236473083496094
			],
			"min":[
				0.07000000029802322,
				-0.49875423312187195,
				-0.6820000410079956
			],
			"type":"VEC3"
		},
		{
			"bufferView":26,
			"componentType":5126,
			"count":2016,
			"type":"VEC3"
		},
		{
			"bufferView":27,
			"componentType":5126,
			"count":2016,
			"type":"VEC2"
		},
		{
			"bufferView":28,
			"componentType":5123,
			"count":5964,
			"type":"SCALAR"
		}
	],
	"bufferViews":[
		{
			"buffer":0,
			"byteLength":3576,
			"byteOffset":0,
			"target":34962
		},
		{
			"buffer":0,
			"byteLength":3576,
			"byteOffset":3576,
			"target":34962
		},
		{
			"buffer":0,
			"byteLength":2384,
			"byteOffset":7152,
			"target":34962
		},
		{
			"buffer":0,
			"byteLength":1356,
			"byteOffset":9536,
			"target":34963
		},
		{
			"buffer":0,
			"byteLength":5952,
			"byteOffset":10892,
			"target":34962
		},
		{
			"buffer":0,
			"byteLength":5952,
			"byteOffset":16844,
			"target":34962
		},
		{
			"buffer":0,
			"byteLength":3968,
			"byteOffset":22796,
			"target":34962
		},
		{
			"buffer":0,
			"byteLength":1440,
			"byteOffset":26764,
			"target":34963
		},
		{
			"buffer":0,
			"byteLength":68832,
			"byteOffset":28204,
			"target":34962
		},
		{
			"buffer":0,
			"byteLength":68832,
			"byteOffset":97036,
			"target":34962
		},
		{
			"buffer":0,
			"byteLength":45888,
			"byteOffset":165868,
			"target":34962
		},
		{
			"buffer":0,
			"byteLength":15120,
			"byteOffset":211756,
			"target":34963
		},
		{
			"buffer":0,
			"byteLength":6984,
			"byteOffset":226876,
			"target":34962
		},
		{
			"buffer":0,
			"byteLength":6984,
			"byteOffset":233860,
			"target":34962
		},
		{
			"buffer":0,
			"byteLength":4656,
			"byteOffset":240844,
			"target":34962
		},
		{
			"buffer":0,
			"byteLength":2304,
			"byteOffset":245500,
			"target":34963
		},
		{
			"buffer":0,
			"byteLength":3576,
			"byteOffset":247804,
			"target":34962
		},
		{
			"buffer":0,
			"byteLength":3576,
			"byteOffset":251380,
			"target":34962
		},
		{
			"buffer":0,
			"byteLength":2384,
			"byteOffset":254956,
			"target":34962
		},
		{
			"buffer":0,
			"byteLength":68832,
			"byteOffset":257340,
			"target":34962
		},
		{
			"buffer":0,
			"byteLength":68832,
			"byteOffset":326172,
			"target":34962
		},
		{
			"buffer":0,
			"byteLength":45888,
			"byteOffset":395004,
			"target":34962
		},
		{
			"buffer":0,
			"byteLength":5952,
			"byteOffset":440892,
			"target":34962
		},
		{
			"buffer":0,
			"byteLength":5952,
			"byteOffset":446844,
			"target":34962
		},
		{
			"buffer":0,
			"byteLength":3968,
			"byteOffset":452796,
			"target":34962
		},
		{
			"buffer":0,
			"byteLength":24192,
			"byteOffset":456764,
			"target":34962
		},
		{
			"buffer":0,
			"byteLength":24192,
			"byteOffset":480956,
			"target":34962
		},
		{
			"buffer":0,
			"byteLength":16128,
			"byteOffset":505148,
			"target":34962
		},
		{
			"buffer":0,
			"byteLength":11928,
			"byteOffset":521276,
			"target":34963
		}
	],
	"samplers":[
		{
			"magFilter":9729,
			"minFilter":9987
		}
	],
	"buffers":[
		{
			"byteLength":533204,
			"uri":"ele_carB.bin"
		}
	]
}
