{
	"asset":{
		"generator":"Khronos glTF Blender I/O v4.4.56",
		"version":"2.0"
	},
	"scene":0,
	"scenes":[
		{
			"name":"Scene",
			"nodes":[
				0,
				1
			]
		}
	],
	"nodes":[
		{
			"mesh":0,
			"name":"lowerTerrain"
		},
		{
			"mesh":1,
			"name":"lowerTerrain_collider"
		}
	],
	"materials":[
		{
			"doubleSided":true,
			"name":"Pirate",
			"pbrMetallicRoughness":{
				"baseColorTexture":{
					"index":0
				},
				"metallicFactor":0
			}
		}
	],
	"meshes":[
		{
			"name":"Plane.087",
			"primitives":[
				{
					"attributes":{
						"POSITION":0,
						"NORMAL":1,
						"TEXCOORD_0":2
					},
					"indices":3,
					"material":0
				}
			]
		},
		{
			"name":"Plane.090",
			"primitives":[
				{
					"attributes":{
						"POSITION":4,
						"NORMAL":5,
						"TEXCOORD_0":6
					},
					"indices":3,
					"material":0
				}
			]
		}
	],
	"textures":[
		{
			"sampler":0,
			"source":0
		}
	],
	"images":[
		{
			"mimeType":"image/png",
			"name":"PiratesPack_TX",
			"uri":"PiratesPack_TX.png"
		}
	],
	"accessors":[
		{
			"bufferView":0,
			"componentType":5126,
			"count":1230,
			"max":[
				69.43650817871094,
				4,
				54.596614837646484
			],
			"min":[
				-76.76744079589844,
				0,
				-78.70639038085938
			],
			"type":"VEC3"
		},
		{
			"bufferView":1,
			"componentType":5126,
			"count":1230,
			"type":"VEC3"
		},
		{
			"bufferView":2,
			"componentType":5126,
			"count":1230,
			"type":"VEC2"
		},
		{
			"bufferView":3,
			"componentType":5123,
			"count":2139,
			"type":"SCALAR"
		},
		{
			"bufferView":4,
			"componentType":5126,
			"count":1230,
			"max":[
				69.43650817871094,
				4,
				54.596614837646484
			],
			"min":[
				-76.76744079589844,
				0,
				-78.70639038085938
			],
			"type":"VEC3"
		},
		{
			"bufferView":5,
			"componentType":5126,
			"count":1230,
			"type":"VEC3"
		},
		{
			"bufferView":6,
			"componentType":5126,
			"count":1230,
			"type":"VEC2"
		}
	],
	"bufferViews":[
		{
			"buffer":0,
			"byteLength":14760,
			"byteOffset":0,
			"target":34962
		},
		{
			"buffer":0,
			"byteLength":14760,
			"byteOffset":14760,
			"target":34962
		},
		{
			"buffer":0,
			"byteLength":9840,
			"byteOffset":29520,
			"target":34962
		},
		{
			"buffer":0,
			"byteLength":4278,
			"byteOffset":39360,
			"target":34963
		},
		{
			"buffer":0,
			"byteLength":14760,
			"byteOffset":43640,
			"target":34962
		},
		{
			"buffer":0,
			"byteLength":14760,
			"byteOffset":58400,
			"target":34962
		},
		{
			"buffer":0,
			"byteLength":9840,
			"byteOffset":73160,
			"target":34962
		}
	],
	"samplers":[
		{
			"magFilter":9729,
			"minFilter":9987
		}
	],
	"buffers":[
		{
			"byteLength":83000,
			"uri":"lowerTerrainB.bin"
		}
	]
}
