{
	"asset":{
		"generator":"Khronos glTF Blender I/O v4.4.56",
		"version":"2.0"
	},
	"scene":0,
	"scenes":[
		{
			"name":"Scene",
			"nodes":[
				0
			]
		}
	],
	"nodes":[
		{
			"mesh":0,
			"name":"parkSignAA"
		}
	],
	"materials":[
		{
			"doubleSided":true,
			"name":"Pirate",
			"pbrMetallicRoughness":{
				"baseColorTexture":{
					"index":0
				},
				"metallicFactor":0
			}
		}
	],
	"meshes":[
		{
			"name":"Cube.018",
			"primitives":[
				{
					"attributes":{
						"POSITION":0,
						"NORMAL":1,
						"TEXCOORD_0":2
					},
					"indices":3,
					"material":0
				},
				{
					"attributes":{
						"POSITION":4,
						"NORMAL":5,
						"TEXCOORD_0":6
					},
					"indices":7
				}
			]
		}
	],
	"textures":[
		{
			"sampler":0,
			"source":0
		}
	],
	"images":[
		{
			"mimeType":"image/png",
			"name":"PiratesPack_TX",
			"uri":"PiratesPack_TX.png"
		}
	],
	"accessors":[
		{
			"bufferView":0,
			"componentType":5126,
			"count":652,
			"max":[
				0.9190942049026489,
				1.9975612163543701,
				0.08696900308132172
			],
			"min":[
				-0.7950922250747681,
				0,
				-0.08696900308132172
			],
			"type":"VEC3"
		},
		{
			"bufferView":1,
			"componentType":5126,
			"count":652,
			"type":"VEC3"
		},
		{
			"bufferView":2,
			"componentType":5126,
			"count":652,
			"type":"VEC2"
		},
		{
			"bufferView":3,
			"componentType":5123,
			"count":1845,
			"type":"SCALAR"
		},
		{
			"bufferView":4,
			"componentType":5126,
			"count":34,
			"max":[
				1.4790014028549194,
				2.0881872177124023,
				0.004655821248888969
			],
			"min":[
				-0.9999964237213135,
				1.2202198505401611,
				-0.004655821248888969
			],
			"type":"VEC3"
		},
		{
			"bufferView":5,
			"componentType":5126,
			"count":34,
			"type":"VEC3"
		},
		{
			"bufferView":6,
			"componentType":5126,
			"count":34,
			"type":"VEC2"
		},
		{
			"bufferView":7,
			"componentType":5123,
			"count":60,
			"type":"SCALAR"
		}
	],
	"bufferViews":[
		{
			"buffer":0,
			"byteLength":7824,
			"byteOffset":0,
			"target":34962
		},
		{
			"buffer":0,
			"byteLength":7824,
			"byteOffset":7824,
			"target":34962
		},
		{
			"buffer":0,
			"byteLength":5216,
			"byteOffset":15648,
			"target":34962
		},
		{
			"buffer":0,
			"byteLength":3690,
			"byteOffset":20864,
			"target":34963
		},
		{
			"buffer":0,
			"byteLength":408,
			"byteOffset":24556,
			"target":34962
		},
		{
			"buffer":0,
			"byteLength":408,
			"byteOffset":24964,
			"target":34962
		},
		{
			"buffer":0,
			"byteLength":272,
			"byteOffset":25372,
			"target":34962
		},
		{
			"buffer":0,
			"byteLength":120,
			"byteOffset":25644,
			"target":34963
		}
	],
	"samplers":[
		{
			"magFilter":9729,
			"minFilter":9987
		}
	],
	"buffers":[
		{
			"byteLength":25764,
			"uri":"parkSignA.bin"
		}
	]
}
