{
	"asset":{
		"generator":"Khronos glTF Blender I/O v4.4.56",
		"version":"2.0"
	},
	"scene":0,
	"scenes":[
		{
			"name":"Scene",
			"nodes":[
				0,
				1
			]
		}
	],
	"nodes":[
		{
			"mesh":0,
			"name":"templeRun"
		},
		{
			"mesh":1,
			"name":"templeRun_collider"
		}
	],
	"materials":[
		{
			"doubleSided":true,
			"name":"Pirate",
			"pbrMetallicRoughness":{
				"baseColorTexture":{
					"index":0
				},
				"metallicFactor":0
			}
		}
	],
	"meshes":[
		{
			"name":"Mesh_0.005",
			"primitives":[
				{
					"attributes":{
						"POSITION":0,
						"NORMAL":1,
						"TEXCOORD_0":2
					},
					"indices":3,
					"material":0
				}
			]
		},
		{
			"name":"Mesh_0.007",
			"primitives":[
				{
					"attributes":{
						"POSITION":4,
						"NORMAL":5,
						"TEXCOORD_0":6
					},
					"indices":3,
					"material":0
				}
			]
		}
	],
	"textures":[
		{
			"sampler":0,
			"source":0
		}
	],
	"images":[
		{
			"mimeType":"image/png",
			"name":"PiratesPack_TX",
			"uri":"PiratesPack_TX.png"
		}
	],
	"accessors":[
		{
			"bufferView":0,
			"componentType":5126,
			"count":1163,
			"max":[
				22.955039978027344,
				34,
				-6.14910888671875
			],
			"min":[
				-75.9546127319336,
				1.1920928955078125e-07,
				-77.51848602294922
			],
			"type":"VEC3"
		},
		{
			"bufferView":1,
			"componentType":5126,
			"count":1163,
			"type":"VEC3"
		},
		{
			"bufferView":2,
			"componentType":5126,
			"count":1163,
			"type":"VEC2"
		},
		{
			"bufferView":3,
			"componentType":5123,
			"count":2499,
			"type":"SCALAR"
		},
		{
			"bufferView":4,
			"componentType":5126,
			"count":1163,
			"max":[
				22.955039978027344,
				34,
				-6.14910888671875
			],
			"min":[
				-75.9546127319336,
				1.1920928955078125e-07,
				-77.51848602294922
			],
			"type":"VEC3"
		},
		{
			"bufferView":5,
			"componentType":5126,
			"count":1163,
			"type":"VEC3"
		},
		{
			"bufferView":6,
			"componentType":5126,
			"count":1163,
			"type":"VEC2"
		}
	],
	"bufferViews":[
		{
			"buffer":0,
			"byteLength":13956,
			"byteOffset":0,
			"target":34962
		},
		{
			"buffer":0,
			"byteLength":13956,
			"byteOffset":13956,
			"target":34962
		},
		{
			"buffer":0,
			"byteLength":9304,
			"byteOffset":27912,
			"target":34962
		},
		{
			"buffer":0,
			"byteLength":4998,
			"byteOffset":37216,
			"target":34963
		},
		{
			"buffer":0,
			"byteLength":13956,
			"byteOffset":42216,
			"target":34962
		},
		{
			"buffer":0,
			"byteLength":13956,
			"byteOffset":56172,
			"target":34962
		},
		{
			"buffer":0,
			"byteLength":9304,
			"byteOffset":70128,
			"target":34962
		}
	],
	"samplers":[
		{
			"magFilter":9729,
			"minFilter":9987
		}
	],
	"buffers":[
		{
			"byteLength":79432,
			"uri":"templeRunB.bin"
		}
	]
}
