{
	"asset":{
		"generator":"Khronos glTF Blender I/O v4.4.56",
		"version":"2.0"
	},
	"scene":0,
	"scenes":[
		{
			"name":"Scene",
			"nodes":[
				0,
				1,
				2,
				3,
				4
			]
		}
	],
	"nodes":[
		{
			"mesh":0,
			"name":"tempBridgesA"
		},
		{
			"mesh":1,
			"name":"tempBridgesA_collider"
		},
		{
			"mesh":2,
			"name":"cliffs"
		},
		{
			"mesh":3,
			"name":"lowerTerrain"
		},
		{
			"mesh":4,
			"name":"pHouseLevel",
			"translation":[
				0,
				2,
				0
			]
		}
	],
	"materials":[
		{
			"doubleSided":true,
			"name":"Pirate",
			"pbrMetallicRoughness":{
				"baseColorTexture":{
					"index":0
				},
				"metallicFactor":0
			}
		}
	],
	"meshes":[
		{
			"name":"Plane.012",
			"primitives":[
				{
					"attributes":{
						"POSITION":0,
						"NORMAL":1,
						"TEXCOORD_0":2
					},
					"indices":3
				}
			]
		},
		{
			"name":"Plane.014",
			"primitives":[
				{
					"attributes":{
						"POSITION":4,
						"NORMAL":5,
						"TEXCOORD_0":6
					},
					"indices":3
				}
			]
		},
		{
			"name":"Plane.088",
			"primitives":[
				{
					"attributes":{
						"POSITION":7,
						"NORMAL":8,
						"TEXCOORD_0":9
					},
					"indices":10,
					"material":0
				}
			]
		},
		{
			"name":"Plane.087",
			"primitives":[
				{
					"attributes":{
						"POSITION":11,
						"NORMAL":12,
						"TEXCOORD_0":13
					},
					"indices":14,
					"material":0
				}
			]
		},
		{
			"name":"Plane.003",
			"primitives":[
				{
					"attributes":{
						"POSITION":15,
						"NORMAL":16,
						"TEXCOORD_0":17
					},
					"indices":18,
					"material":0
				}
			]
		}
	],
	"textures":[
		{
			"sampler":0,
			"source":0
		}
	],
	"images":[
		{
			"mimeType":"image/png",
			"name":"PiratesPack_TX",
			"uri":"PiratesPack_TX.png"
		}
	],
	"accessors":[
		{
			"bufferView":0,
			"componentType":5126,
			"count":42,
			"max":[
				57.033973693847656,
				34,
				15.113466262817383
			],
			"min":[
				-49.192237854003906,
				3.9999961853027344,
				-59.01971435546875
			],
			"type":"VEC3"
		},
		{
			"bufferView":1,
			"componentType":5126,
			"count":42,
			"type":"VEC3"
		},
		{
			"bufferView":2,
			"componentType":5126,
			"count":42,
			"type":"VEC2"
		},
		{
			"bufferView":3,
			"componentType":5123,
			"count":66,
			"type":"SCALAR"
		},
		{
			"bufferView":4,
			"componentType":5126,
			"count":42,
			"max":[
				57.033973693847656,
				34,
				15.113466262817383
			],
			"min":[
				-49.192237854003906,
				3.9999961853027344,
				-59.01971435546875
			],
			"type":"VEC3"
		},
		{
			"bufferView":5,
			"componentType":5126,
			"count":42,
			"type":"VEC3"
		},
		{
			"bufferView":6,
			"componentType":5126,
			"count":42,
			"type":"VEC2"
		},
		{
			"bufferView":7,
			"componentType":5126,
			"count":1088,
			"max":[
				63.85848617553711,
				50,
				41.58415603637695
			],
			"min":[
				-75.9546127319336,
				0,
				-77.51848602294922
			],
			"type":"VEC3"
		},
		{
			"bufferView":8,
			"componentType":5126,
			"count":1088,
			"type":"VEC3"
		},
		{
			"bufferView":9,
			"componentType":5126,
			"count":1088,
			"type":"VEC2"
		},
		{
			"bufferView":10,
			"componentType":5123,
			"count":2391,
			"type":"SCALAR"
		},
		{
			"bufferView":11,
			"componentType":5126,
			"count":1226,
			"max":[
				69.43650817871094,
				4,
				54.596614837646484
			],
			"min":[
				-76.76744079589844,
				0,
				-78.70639038085938
			],
			"type":"VEC3"
		},
		{
			"bufferView":12,
			"componentType":5126,
			"count":1226,
			"type":"VEC3"
		},
		{
			"bufferView":13,
			"componentType":5126,
			"count":1226,
			"type":"VEC2"
		},
		{
			"bufferView":14,
			"componentType":5123,
			"count":2139,
			"type":"SCALAR"
		},
		{
			"bufferView":15,
			"componentType":5126,
			"count":80,
			"max":[
				58.22519302368164,
				8,
				40.22810363769531
			],
			"min":[
				15.666483879089355,
				0,
				3.293161153793335
			],
			"type":"VEC3"
		},
		{
			"bufferView":16,
			"componentType":5126,
			"count":80,
			"type":"VEC3"
		},
		{
			"bufferView":17,
			"componentType":5126,
			"count":80,
			"type":"VEC2"
		},
		{
			"bufferView":18,
			"componentType":5123,
			"count":138,
			"type":"SCALAR"
		}
	],
	"bufferViews":[
		{
			"buffer":0,
			"byteLength":504,
			"byteOffset":0,
			"target":34962
		},
		{
			"buffer":0,
			"byteLength":504,
			"byteOffset":504,
			"target":34962
		},
		{
			"buffer":0,
			"byteLength":336,
			"byteOffset":1008,
			"target":34962
		},
		{
			"buffer":0,
			"byteLength":132,
			"byteOffset":1344,
			"target":34963
		},
		{
			"buffer":0,
			"byteLength":504,
			"byteOffset":1476,
			"target":34962
		},
		{
			"buffer":0,
			"byteLength":504,
			"byteOffset":1980,
			"target":34962
		},
		{
			"buffer":0,
			"byteLength":336,
			"byteOffset":2484,
			"target":34962
		},
		{
			"buffer":0,
			"byteLength":13056,
			"byteOffset":2820,
			"target":34962
		},
		{
			"buffer":0,
			"byteLength":13056,
			"byteOffset":15876,
			"target":34962
		},
		{
			"buffer":0,
			"byteLength":8704,
			"byteOffset":28932,
			"target":34962
		},
		{
			"buffer":0,
			"byteLength":4782,
			"byteOffset":37636,
			"target":34963
		},
		{
			"buffer":0,
			"byteLength":14712,
			"byteOffset":42420,
			"target":34962
		},
		{
			"buffer":0,
			"byteLength":14712,
			"byteOffset":57132,
			"target":34962
		},
		{
			"buffer":0,
			"byteLength":9808,
			"byteOffset":71844,
			"target":34962
		},
		{
			"buffer":0,
			"byteLength":4278,
			"byteOffset":81652,
			"target":34963
		},
		{
			"buffer":0,
			"byteLength":960,
			"byteOffset":85932,
			"target":34962
		},
		{
			"buffer":0,
			"byteLength":960,
			"byteOffset":86892,
			"target":34962
		},
		{
			"buffer":0,
			"byteLength":640,
			"byteOffset":87852,
			"target":34962
		},
		{
			"buffer":0,
			"byteLength":276,
			"byteOffset":88492,
			"target":34963
		}
	],
	"samplers":[
		{
			"magFilter":9729,
			"minFilter":9987
		}
	],
	"buffers":[
		{
			"byteLength":88768,
			"uri":"tempBridgesB.bin"
		}
	]
}
