{
	"asset":{
		"generator":"Khronos glTF Blender I/O v4.4.56",
		"version":"2.0"
	},
	"scene":0,
	"scenes":[
		{
			"name":"Scene",
			"nodes":[
				0,
				1,
				2,
				3,
				4,
				5,
				6,
				7,
				8,
				9
			]
		}
	],
	"nodes":[
		{
			"mesh":0,
			"name":"templeRun"
		},
		{
			"mesh":1,
			"name":"templeBoneBridgeB",
			"rotation":[
				0.7804685831069946,
				-0.07787103205919266,
				0.0545666366815567,
				0.6179219484329224
			],
			"scale":[
				0.7579110860824585,
				0.7493004202842712,
				0.6089227795600891
			],
			"translation":[
				-45.28142166137695,
				34.25132369995117,
				-49.76210021972656
			]
		},
		{
			"mesh":2,
			"name":"templeBoneBridgeB_collider",
			"rotation":[
				0.7804685831069946,
				-0.07787103205919266,
				0.0545666366815567,
				0.6179219484329224
			],
			"scale":[
				0.7579110860824585,
				0.7493004202842712,
				0.6089227795600891
			],
			"translation":[
				-45.28142166137695,
				34.25132369995117,
				-49.76210021972656
			]
		},
		{
			"mesh":3,
			"name":"templeRunRibs",
			"rotation":[
				0.05277033522725105,
				-0.3998432457447052,
				-0.07916751503944397,
				0.911632239818573
			],
			"scale":[
				0.6804927587509155,
				0.6804926991462708,
				0.6804926991462708
			],
			"translation":[
				13.40506649017334,
				19.802648544311523,
				-42.65155792236328
			]
		},
		{
			"mesh":4,
			"name":"templeRunRibs_collider",
			"rotation":[
				0.05277033522725105,
				-0.3998432457447052,
				-0.07916751503944397,
				0.911632239818573
			],
			"scale":[
				0.6804927587509155,
				0.6804926991462708,
				0.6804926991462708
			],
			"translation":[
				13.40506649017334,
				19.802648544311523,
				-42.65155792236328
			]
		},
		{
			"mesh":5,
			"name":"boneBridgeB",
			"rotation":[
				0.7374061942100525,
				-0.2585338056087494,
				0.43229180574417114,
				0.450018048286438
			],
			"scale":[
				0.6994324326515198,
				0.6914860606193542,
				0.5619396567344666
			],
			"translation":[
				-14.8616304397583,
				34.53481674194336,
				-38.61001205444336
			]
		},
		{
			"mesh":6,
			"name":"boneStepsB",
			"rotation":[
				0.47056329250335693,
				0.5424291491508484,
				-0.5566171407699585,
				0.4177538752555847
			],
			"scale":[
				0.5741367340087891,
				0.48032087087631226,
				0.5831292867660522
			],
			"translation":[
				18.961400985717773,
				23.207077026367188,
				-54.99211883544922
			]
		},
		{
			"mesh":7,
			"name":"boneBridgeB_collider",
			"rotation":[
				0.7374061942100525,
				-0.2585338056087494,
				0.43229180574417114,
				0.450018048286438
			],
			"scale":[
				0.6994324326515198,
				0.6914860606193542,
				0.5619396567344666
			],
			"translation":[
				-14.8616304397583,
				34.53481674194336,
				-38.61001205444336
			]
		},
		{
			"mesh":8,
			"name":"boneStepsB_collider",
			"rotation":[
				0.47056329250335693,
				0.5424291491508484,
				-0.5566171407699585,
				0.4177538752555847
			],
			"scale":[
				0.5741367340087891,
				0.48032087087631226,
				0.5831292867660522
			],
			"translation":[
				18.961400985717773,
				23.207077026367188,
				-54.99211883544922
			]
		},
		{
			"mesh":9,
			"name":"templeRun_collider"
		}
	],
	"materials":[
		{
			"doubleSided":true,
			"name":"Pirate",
			"pbrMetallicRoughness":{
				"baseColorTexture":{
					"index":0
				},
				"metallicFactor":0
			}
		},
		{
			"doubleSided":true,
			"name":"BoneMap",
			"pbrMetallicRoughness":{
				"baseColorTexture":{
					"index":1
				},
				"metallicFactor":0
			}
		},
		{
			"doubleSided":true,
			"name":"Pirate.003",
			"pbrMetallicRoughness":{
				"baseColorTexture":{
					"index":2
				},
				"metallicFactor":0
			}
		},
		{
			"doubleSided":true,
			"name":"Pirate.002",
			"pbrMetallicRoughness":{
				"baseColorTexture":{
					"index":3
				},
				"metallicFactor":0
			}
		}
	],
	"meshes":[
		{
			"name":"Mesh_0.007",
			"primitives":[
				{
					"attributes":{
						"POSITION":0,
						"NORMAL":1,
						"TEXCOORD_0":2
					},
					"indices":3,
					"material":0
				}
			]
		},
		{
			"name":"Cube.026",
			"primitives":[
				{
					"attributes":{
						"POSITION":4,
						"NORMAL":5,
						"TEXCOORD_0":6
					},
					"indices":7,
					"material":1
				}
			]
		},
		{
			"name":"Cube.027",
			"primitives":[
				{
					"attributes":{
						"POSITION":8,
						"NORMAL":9,
						"TEXCOORD_0":10
					},
					"indices":7,
					"material":1
				}
			]
		},
		{
			"name":"Circle.005",
			"primitives":[
				{
					"attributes":{
						"POSITION":11,
						"NORMAL":12,
						"TEXCOORD_0":13
					},
					"indices":14,
					"material":2
				}
			]
		},
		{
			"name":"Circle.012",
			"primitives":[
				{
					"attributes":{
						"POSITION":15,
						"NORMAL":16,
						"TEXCOORD_0":17
					},
					"indices":14,
					"material":2
				}
			]
		},
		{
			"name":"Cube.013",
			"primitives":[
				{
					"attributes":{
						"POSITION":18,
						"NORMAL":19,
						"TEXCOORD_0":20
					},
					"indices":7,
					"material":1
				}
			]
		},
		{
			"name":"Cube.017",
			"primitives":[
				{
					"attributes":{
						"POSITION":21,
						"NORMAL":22,
						"TEXCOORD_0":23
					},
					"indices":24,
					"material":3
				}
			]
		},
		{
			"name":"Cube.024",
			"primitives":[
				{
					"attributes":{
						"POSITION":25,
						"NORMAL":26,
						"TEXCOORD_0":27
					},
					"indices":7,
					"material":1
				}
			]
		},
		{
			"name":"Cube.025",
			"primitives":[
				{
					"attributes":{
						"POSITION":28,
						"NORMAL":29,
						"TEXCOORD_0":30
					},
					"indices":24,
					"material":3
				}
			]
		},
		{
			"name":"Mesh_0.005",
			"primitives":[
				{
					"attributes":{
						"POSITION":31,
						"NORMAL":32,
						"TEXCOORD_0":33
					},
					"indices":3,
					"material":0
				}
			]
		}
	],
	"textures":[
		{
			"sampler":0,
			"source":0
		},
		{
			"sampler":0,
			"source":1
		},
		{
			"sampler":0,
			"source":2
		},
		{
			"sampler":0,
			"source":2
		}
	],
	"images":[
		{
			"mimeType":"image/png",
			"name":"PiratesPack_TX",
			"uri":"PiratesPack_TX.png"
		},
		{
			"mimeType":"image/png",
			"name":"boneGradientsA",
			"uri":"boneGradientsA.png"
		},
		{
			"mimeType":"image/png",
			"name":"PiratesPack_TX.png",
			"uri":"PiratesPack_TX_png.png"
		}
	],
	"accessors":[
		{
			"bufferView":0,
			"componentType":5126,
			"count":1223,
			"max":[
				22.955039978027344,
				34,
				-6.14910888671875
			],
			"min":[
				-75.9546127319336,
				-0.07720845937728882,
				-77.51848602294922
			],
			"type":"VEC3"
		},
		{
			"bufferView":1,
			"componentType":5126,
			"count":1223,
			"type":"VEC3"
		},
		{
			"bufferView":2,
			"componentType":5126,
			"count":1223,
			"type":"VEC2"
		},
		{
			"bufferView":3,
			"componentType":5123,
			"count":2664,
			"type":"SCALAR"
		},
		{
			"bufferView":4,
			"componentType":5126,
			"count":956,
			"max":[
				2.9795236587524414,
				13.843238830566406,
				5.5074896812438965
			],
			"min":[
				-3.0755863189697266,
				-13.843239784240723,
				-5.507488250732422
			],
			"type":"VEC3"
		},
		{
			"bufferView":5,
			"componentType":5126,
			"count":956,
			"type":"VEC3"
		},
		{
			"bufferView":6,
			"componentType":5126,
			"count":956,
			"type":"VEC2"
		},
		{
			"bufferView":7,
			"componentType":5123,
			"count":1260,
			"type":"SCALAR"
		},
		{
			"bufferView":8,
			"componentType":5126,
			"count":956,
			"max":[
				2.9795236587524414,
				13.843238830566406,
				5.5074896812438965
			],
			"min":[
				-3.0755863189697266,
				-13.843239784240723,
				-5.507488250732422
			],
			"type":"VEC3"
		},
		{
			"bufferView":9,
			"componentType":5126,
			"count":956,
			"type":"VEC3"
		},
		{
			"bufferView":10,
			"componentType":5126,
			"count":956,
			"type":"VEC2"
		},
		{
			"bufferView":11,
			"componentType":5126,
			"count":886,
			"max":[
				1.3069206476211548,
				19.229328155517578,
				90.08952331542969
			],
			"min":[
				-29.659685134887695,
				-8.63100814819336,
				-0.8560333251953125
			],
			"type":"VEC3"
		},
		{
			"bufferView":12,
			"componentType":5126,
			"count":886,
			"type":"VEC3"
		},
		{
			"bufferView":13,
			"componentType":5126,
			"count":886,
			"type":"VEC2"
		},
		{
			"bufferView":14,
			"componentType":5123,
			"count":1728,
			"type":"SCALAR"
		},
		{
			"bufferView":15,
			"componentType":5126,
			"count":886,
			"max":[
				1.3069206476211548,
				19.229328155517578,
				90.08952331542969
			],
			"min":[
				-29.659685134887695,
				-8.63100814819336,
				-0.8560333251953125
			],
			"type":"VEC3"
		},
		{
			"bufferView":16,
			"componentType":5126,
			"count":886,
			"type":"VEC3"
		},
		{
			"bufferView":17,
			"componentType":5126,
			"count":886,
			"type":"VEC2"
		},
		{
			"bufferView":18,
			"componentType":5126,
			"count":956,
			"max":[
				2.9795236587524414,
				13.843238830566406,
				5.5074896812438965
			],
			"min":[
				-3.0755863189697266,
				-13.843239784240723,
				-5.507488250732422
			],
			"type":"VEC3"
		},
		{
			"bufferView":19,
			"componentType":5126,
			"count":956,
			"type":"VEC3"
		},
		{
			"bufferView":20,
			"componentType":5126,
			"count":956,
			"type":"VEC2"
		},
		{
			"bufferView":21,
			"componentType":5126,
			"count":11472,
			"max":[
				12.103166580200195,
				2.974891185760498,
				1.7766554355621338
			],
			"min":[
				-2.8135464191436768,
				-30.384174346923828,
				-6.527520179748535
			],
			"type":"VEC3"
		},
		{
			"bufferView":22,
			"componentType":5126,
			"count":11472,
			"type":"VEC3"
		},
		{
			"bufferView":23,
			"componentType":5126,
			"count":11472,
			"type":"VEC2"
		},
		{
			"bufferView":24,
			"componentType":5123,
			"count":15120,
			"type":"SCALAR"
		},
		{
			"bufferView":25,
			"componentType":5126,
			"count":956,
			"max":[
				2.9795236587524414,
				13.843238830566406,
				5.5074896812438965
			],
			"min":[
				-3.0755863189697266,
				-13.843239784240723,
				-5.507488250732422
			],
			"type":"VEC3"
		},
		{
			"bufferView":26,
			"componentType":5126,
			"count":956,
			"type":"VEC3"
		},
		{
			"bufferView":27,
			"componentType":5126,
			"count":956,
			"type":"VEC2"
		},
		{
			"bufferView":28,
			"componentType":5126,
			"count":11472,
			"max":[
				12.103166580200195,
				2.974891185760498,
				1.7766554355621338
			],
			"min":[
				-2.8135464191436768,
				-30.384174346923828,
				-6.527520179748535
			],
			"type":"VEC3"
		},
		{
			"bufferView":29,
			"componentType":5126,
			"count":11472,
			"type":"VEC3"
		},
		{
			"bufferView":30,
			"componentType":5126,
			"count":11472,
			"type":"VEC2"
		},
		{
			"bufferView":31,
			"componentType":5126,
			"count":1223,
			"max":[
				22.955039978027344,
				34,
				-6.14910888671875
			],
			"min":[
				-75.9546127319336,
				-0.07720845937728882,
				-77.51848602294922
			],
			"type":"VEC3"
		},
		{
			"bufferView":32,
			"componentType":5126,
			"count":1223,
			"type":"VEC3"
		},
		{
			"bufferView":33,
			"componentType":5126,
			"count":1223,
			"type":"VEC2"
		}
	],
	"bufferViews":[
		{
			"buffer":0,
			"byteLength":14676,
			"byteOffset":0,
			"target":34962
		},
		{
			"buffer":0,
			"byteLength":14676,
			"byteOffset":14676,
			"target":34962
		},
		{
			"buffer":0,
			"byteLength":9784,
			"byteOffset":29352,
			"target":34962
		},
		{
			"buffer":0,
			"byteLength":5328,
			"byteOffset":39136,
			"target":34963
		},
		{
			"buffer":0,
			"byteLength":11472,
			"byteOffset":44464,
			"target":34962
		},
		{
			"buffer":0,
			"byteLength":11472,
			"byteOffset":55936,
			"target":34962
		},
		{
			"buffer":0,
			"byteLength":7648,
			"byteOffset":67408,
			"target":34962
		},
		{
			"buffer":0,
			"byteLength":2520,
			"byteOffset":75056,
			"target":34963
		},
		{
			"buffer":0,
			"byteLength":11472,
			"byteOffset":77576,
			"target":34962
		},
		{
			"buffer":0,
			"byteLength":11472,
			"byteOffset":89048,
			"target":34962
		},
		{
			"buffer":0,
			"byteLength":7648,
			"byteOffset":100520,
			"target":34962
		},
		{
			"buffer":0,
			"byteLength":10632,
			"byteOffset":108168,
			"target":34962
		},
		{
			"buffer":0,
			"byteLength":10632,
			"byteOffset":118800,
			"target":34962
		},
		{
			"buffer":0,
			"byteLength":7088,
			"byteOffset":129432,
			"target":34962
		},
		{
			"buffer":0,
			"byteLength":3456,
			"byteOffset":136520,
			"target":34963
		},
		{
			"buffer":0,
			"byteLength":10632,
			"byteOffset":139976,
			"target":34962
		},
		{
			"buffer":0,
			"byteLength":10632,
			"byteOffset":150608,
			"target":34962
		},
		{
			"buffer":0,
			"byteLength":7088,
			"byteOffset":161240,
			"target":34962
		},
		{
			"buffer":0,
			"byteLength":11472,
			"byteOffset":168328,
			"target":34962
		},
		{
			"buffer":0,
			"byteLength":11472,
			"byteOffset":179800,
			"target":34962
		},
		{
			"buffer":0,
			"byteLength":7648,
			"byteOffset":191272,
			"target":34962
		},
		{
			"buffer":0,
			"byteLength":137664,
			"byteOffset":198920,
			"target":34962
		},
		{
			"buffer":0,
			"byteLength":137664,
			"byteOffset":336584,
			"target":34962
		},
		{
			"buffer":0,
			"byteLength":91776,
			"byteOffset":474248,
			"target":34962
		},
		{
			"buffer":0,
			"byteLength":30240,
			"byteOffset":566024,
			"target":34963
		},
		{
			"buffer":0,
			"byteLength":11472,
			"byteOffset":596264,
			"target":34962
		},
		{
			"buffer":0,
			"byteLength":11472,
			"byteOffset":607736,
			"target":34962
		},
		{
			"buffer":0,
			"byteLength":7648,
			"byteOffset":619208,
			"target":34962
		},
		{
			"buffer":0,
			"byteLength":137664,
			"byteOffset":626856,
			"target":34962
		},
		{
			"buffer":0,
			"byteLength":137664,
			"byteOffset":764520,
			"target":34962
		},
		{
			"buffer":0,
			"byteLength":91776,
			"byteOffset":902184,
			"target":34962
		},
		{
			"buffer":0,
			"byteLength":14676,
			"byteOffset":993960,
			"target":34962
		},
		{
			"buffer":0,
			"byteLength":14676,
			"byteOffset":1008636,
			"target":34962
		},
		{
			"buffer":0,
			"byteLength":9784,
			"byteOffset":1023312,
			"target":34962
		}
	],
	"samplers":[
		{
			"magFilter":9729,
			"minFilter":9987
		}
	],
	"buffers":[
		{
			"byteLength":1033096,
			"uri":"templeRunB.bin"
		}
	]
}
